# xmcd
#
# Track frame offsets: 
#        150
#        17851
#        39312
#        59523
#        80809
#        97611
#        118142
#        139060
#        155490
#        170193
#        186603
#        207588
#        223651
#        243002
#        259239
#
# Disc length: 3683 seconds
#
# Revision: 0
# Processed by: cddbd v1.5.2PL0 Copyright (c) Steve Scherf et al.
# Submitted via: ExactAudioCopy v0.99pb4
#
DISCID=e00e610f
DTITLE=Coolgrass - Never Put The Banjo Down
DYEAR=2009
DGENRE=Bluegrass
TTITLE0=Jet Airliner
TTITLE1=Ashphalt Outlaw Hero
TTITLE2=Concrete and Clay - Under The Double Eagle
TTITLE3=It Don't Mean A Thing
TTITLE4=Never Put The Banjo Down
TTITLE5=Dark Eyes
TTITLE6=I Can't Remember A Thing
TTITLE7=Sway
TTITLE8=Doodling Banjo
TTITLE9=Zen Gospel Singing
TTITLE10=I'm Thinking Tonight Of My Blue Eyes
TTITLE11=Apache
TTITLE12=Cool Water
TTITLE13=Scruggs Medley
TTITLE14=Sweetheart Down The Line
EXTD=
EXTT0=
EXTT1=
EXTT2=
EXTT3=
EXTT4=
EXTT5=
EXTT6=
EXTT7=
EXTT8=
EXTT9=
EXTT10=
EXTT11=
EXTT12=
EXTT13=
EXTT14=
PLAYORDER=
